<?xml version="1.0" encoding="UTF-8"?>
<svg id="Capa_2" data-name="Capa 2" xmlns="http://www.w3.org/2000/svg" viewBox="0 0 338 68.39">
  <defs>
    <style>
      .cls-1 {
        fill: #d24480;
      }

      .cls-1, .cls-2 {
        stroke-width: 0px;
      }

      .cls-2 {
        fill: #c94680;
      }
    </style>
  </defs>
  <g id="Capa_1-2" data-name="Capa 1">
    <g>
      <path class="cls-1" d="M303.8,68.39H34.19C15.34,68.39,0,53.05,0,34.19c0-9.12,3.56-17.71,10.01-24.18C16.47,3.56,25.06,0,34.19,0h269.61c18.86,0,34.2,15.34,34.2,34.19,0,9.13-3.56,17.72-10.01,24.19-6.47,6.46-15.06,10.01-24.19,10.01ZM34.19,2c-8.6,0-16.68,3.35-22.76,9.43-6.08,6.09-9.43,14.17-9.43,22.76,0,17.76,14.44,32.2,32.19,32.2h269.61c8.6,0,16.68-3.35,22.77-9.43,6.08-6.09,9.43-14.18,9.43-22.77,0-17.75-14.44-32.19-32.2-32.19H34.19Z"/>
      <g>
        <path class="cls-2" d="M73.18,31.12c.48-9.26,7.46-16.77,16.53-16.86,5.38-.05,8,2.47,10.08,2.37,1.02-.05,1.84-.63,1.99-1.94l.68-.05,1.02,12.94-.68.1c-1.41-6.93-6.98-12.65-13.18-12.6-6.83.05-11.92,6.64-11.49,15.12.44,9.01,6.64,15.27,14.83,14.93,5.91-.24,9.69-4.17,11.34-8.87l.58.15c-1.36,7.08-6.93,12.89-14.97,12.89-9.93,0-17.2-8.19-16.72-18.17Z"/>
        <path class="cls-2" d="M106.81,36.36c0-7.66,5.62-12.65,12.21-12.65s12.21,5.33,12.21,12.75-5.38,12.79-12.12,12.79-12.31-5.62-12.31-12.89ZM120.62,48.28c4.07-.53,5.82-6.15,4.89-12.99-.87-6.74-4.12-11.19-8.04-10.61-4.07.58-5.82,6.15-4.99,12.75.87,6.74,4.12,11.39,8.14,10.86Z"/>
        <path class="cls-2" d="M162.89,48.13c2.37,0,4.07-.92,3.63-4.22l-1.55-11.1c-.58-4.07-2.28-6.2-5.04-6.2s-4.46,2.28-4.8,4.85c.05.48.1,1.02.1,1.55v10.86c0,3.34,1.45,4.26,3.39,4.26v.63h-11.82v-.63c1.89,0,3.25-.92,3.25-4.26v-10.03c0-4.7-1.89-7.27-5.09-7.27-2.67,0-4.7,2.23-4.99,4.56v12.75c0,3.34,1.36,4.26,3.25,4.26v.63h-11.87v-.63c1.94,0,3.39-.92,3.39-4.26v-14.39c0-2.37-.97-3.15-3.2-3.2v-.63c2.57-.19,5.48-.73,8-1.89l.44.24v5.19c.97-2.81,3.73-5.48,7.32-5.48s6.59,2.18,7.61,6.2c.78-3.25,3.49-6.2,7.41-6.2,4.17,0,7.03,2.62,7.95,8.97l1.65,11.24c.48,3.3,1.89,4.22,3.88,4.22v.63h-12.89v-.63Z"/>
        <path class="cls-2" d="M174.42,57.83c1.94,0,3.39-.92,3.39-4.26v-24.09c0-2.37-.97-3.15-3.2-3.2v-.63c2.57-.19,5.48-.73,8-1.89l.44.24v5.04c.78-2.18,3.54-5.23,7.8-5.23,5.72,0,9.89,5.48,9.89,12.5s-4.99,12.94-11.34,12.94c-2.91,0-4.94-1.26-6.35-2.86v7.17c0,3.34,1.7,4.26,4.07,4.26v.63h-12.7v-.63ZM189.01,48.33c3.63,0,6.25-4.07,6.25-10.23,0-7.56-3.25-11.58-7.12-11.58-2.57,0-4.31,1.79-5.09,4.07v8.38c0,5.19,2.23,9.35,5.96,9.35Z"/>
        <path class="cls-2" d="M200.98,48.13c1.94,0,3.39-.92,3.39-4.26v-14.39c0-2.37-.92-3.15-3.2-3.2v-.63c2.62-.19,5.52-.73,8-1.89l.44.24v5.28c.78-2.76,2.86-5.57,5.91-5.57,2.37,0,3.83,1.74,3.83,3.54,0,1.5-1.02,2.91-2.76,2.91s-2.23-1.5-2.67-2.52c-.29-.73-.53-1.07-1.16-1.07-1.5,0-2.86,2.18-3.15,4.56v12.75c0,3.34,1.89,4.26,4.41,4.26v.63h-13.04v-.63Z"/>
        <path class="cls-2" d="M234.62,44.11l-.15-1.07c-.58,3.05-3.49,6.2-7.95,6.2-4.12,0-6.98-2.67-6.98-6.25,0-3.25,2.33-5.57,6.64-5.96l7.37-.58-.34-2.47c-.58-4.41-2.57-7.32-6.25-7.32-2.86,0-4.99,1.79-6.06,4.36l-.63-.15c.92-3.44,4.41-7.17,9.35-7.17s8,3.2,8.72,8.97l1.41,10.71c.29,2.08,1.11,2.71,1.94,2.71.68,0,1.16-.58,1.31-1.41l.58.05c-.1,2.08-1.6,4.41-4.31,4.41s-4.26-1.99-4.65-5.04ZM229.09,46.39c3.1,0,4.99-2.23,5.23-4.46l-.68-4.75-4.75.39c-2.96.29-4.46,2.04-4.46,4.36s1.7,4.46,4.65,4.46Z"/>
        <path class="cls-2" d="M243.53,48.13c1.94,0,3.39-.92,3.39-4.26v-14.39c0-2.37-.92-3.15-3.2-3.2v-.63c2.62-.19,5.52-.73,8-1.89l.44.24v5.28c.78-2.76,2.86-5.57,5.91-5.57,2.37,0,3.83,1.74,3.83,3.54,0,1.5-1.02,2.91-2.76,2.91s-2.23-1.5-2.67-2.52c-.29-.73-.53-1.07-1.16-1.07-1.5,0-2.86,2.18-3.15,4.56v12.75c0,3.34,1.89,4.26,4.41,4.26v.63h-13.04v-.63Z"/>
      </g>
    </g>
  </g>
</svg>