<?xml version="1.0" encoding="UTF-8"?>
<svg id="Capa_2" data-name="Capa 2" xmlns="http://www.w3.org/2000/svg" viewBox="0 0 395.29 78.04">
  <defs>
    <style>
      .cls-1 {
        fill: #b280e4;
      }

      .cls-1, .cls-2 {
        stroke-width: 0px;
      }

      .cls-2 {
        fill: #0a001a;
      }
    </style>
  </defs>
  <g id="Capa_1-2" data-name="Capa 1">
    <g>
      <rect class="cls-1" x="0" y="0" width="395.29" height="78.04" rx="34.56" ry="34.56" transform="translate(395.29 78.04) rotate(180)"/>
      <g>
        <path class="cls-2" d="M69.54,25.65l-7,20.34c-1.54,4.53.14,6.25,2.8,6.25v.61h-10.68v-.61c2.66,0,5.27-1.73,6.81-6.25l7.7-22.12c-.23-1.54-1.49-3.08-3.73-3.08v-.61h8.82l3.64,25.29,14.51-25.29h7.14v.61c-1.96,0-3.41.89-3.64,4.11l-1.77,23.24c-.23,3.22,1.17,4.11,3.03,4.11v.61h-12.55v-.61c2.29,0,3.92-.89,4.15-4.11l1.91-23-16.23,28.18h-.7l-4.2-27.67Z"/>
        <path class="cls-2" d="M98.7,42.4c.84-7.65,7.04-13.67,13.62-13.67,3.13,0,5.32,1.59,5.22,4.11-.14,4.39-6.67,7.65-13.76,7.98-.79,5.93,1.4,9.61,5.41,9.61,3.59,0,6.95-3.59,8.44-9.57l.51.14c-1.54,7.09-6.39,12.27-11.66,12.27s-8.58-4.39-7.79-10.87ZM113.58,31.76c-.09-1.4-.89-2.29-2.15-2.29-3.27,0-6.67,4.85-7.56,10.69,0,.05,0,.09-.05.19,7-.7,9.84-5.55,9.75-8.59Z"/>
        <path class="cls-2" d="M120.54,31.62v-.61c2.75-.19,5.18-.51,8.07-2.33l.42.33-.89,4.2-2.33,11.01c2.66-8.96,5.32-14.88,8.91-15.44,1.77-.28,3.27.84,3.5,2.38.19,1.45-.56,3.22-2.38,3.55-1.4.23-2.43-.75-2.75-1.59-.28-.65-.7-1.12-1.54-.56-1.35.79-4.52,7.75-7.6,20.3h-5.08l3.83-17.59c.61-2.75-.09-3.59-2.15-3.64Z"/>
        <path class="cls-2" d="M135.84,42.49c.84-7.47,6.9-13.67,13.57-13.67,3.54,0,5.6,2.01,5.78,4.53.14,2.1-1.03,3.13-2.24,3.31-1.59.19-2.71-.79-2.85-2.19-.19-1.59,1.21-2.43,1.03-3.64-.14-.98-.93-1.4-1.96-1.31-3.45.14-7.28,5.04-8.16,10.87-.98,6.07,1.4,10.03,5.46,10.03,3.64,0,7.14-3.36,8.54-9.52l.47.09c-1.54,7.33-6.44,12.27-11.52,12.27-5.32-.05-8.86-4.39-8.12-10.78Z"/>
        <path class="cls-2" d="M164.16,50.05c0-1.35.93-2.89,2.66-2.89,1.54,0,2.66,1.26,2.43,3.13-.19,1.31.33,1.77,1.03,1.68,1.77-.19,4.9-4.43,4.99-11.34.05-6.77-2.1-9.05-3.78-9.05-3.08,0-8.26,8.4-10.4,18.9l-.51,2.38h-4.94l6.06-28.42c.61-2.75-.14-3.59-2.15-3.59v-.65c2.75-.19,5.18-.51,8.07-2.33l.37.33-.89,4.2-4.1,19.13c2.61-6.81,6.9-13.16,11.01-13.16,3.54,0,5.69,3.64,5.41,8.87-.33,6.53-5.13,15.96-11.43,15.96-2.52,0-3.83-1.63-3.83-3.13Z"/>
        <path class="cls-2" d="M181.42,42.49c1.68-7.84,7.7-13.67,13.99-13.67,2.05,0,3.5.75,4.76,1.87l3.54-2.38.47.37-3.41,15.68c-.79,3.73-1.54,5.93-.47,5.97.98.14,2.8-2.15,4.1-7.23l.47.14c-1.87,7.79-5.18,10.31-7.79,9.85-2.61-.51-2.38-3.45-1.31-7.93l.7-2.75c-2.33,5.55-6.3,10.92-10.22,10.92-4.38,0-6.06-5.09-4.85-10.83ZM188.6,50.52c3.03,0,7.65-6.86,9.05-13.91.79-4.29,0-7-2.29-7-2.52,0-6.25,3.41-8.4,10.17-2.24,7.14-.84,10.73,1.63,10.73Z"/>
        <path class="cls-2" d="M209.37,35.26c.61-2.71-.14-3.59-2.15-3.59v-.61c2.75-.19,5.18-.56,8.07-2.38l.37.33-.89,4.2-2.47,11.53c3.31-9.75,8.02-16,12.83-16,3.45,0,4.9,2.85,3.31,8.49l-2.05,7.47c-1.03,3.64-1.91,5.79-.84,5.93.98.19,2.94-2.01,4.57-7l.42.14c-2.33,7.7-5.74,10.03-8.35,9.38-2.57-.65-2.24-3.55-.98-8.03l1.91-6.72c1.59-5.41.51-6.81-.93-6.81-3.27,0-8.44,8.4-11.61,21.28h-4.94l3.73-17.59Z"/>
        <path class="cls-2" d="M231.99,42.49c1.68-7.84,7.7-13.67,13.99-13.67,1.59,0,2.89.61,3.73,1.35l1.12-5.74c.56-2.75-.14-3.59-2.15-3.64v-.61c2.71-.19,5.13-.56,8.02-2.38l.42.33-.89,4.2-4.66,22.02c-.79,3.69-1.49,5.88-.42,5.97.98.14,2.75-2.15,4.1-7.28l.42.14c-1.82,7.84-5.13,10.36-7.74,9.85-2.61-.47-2.47-3.41-1.49-7.93l.65-2.8c-2.29,5.6-6.3,11.01-10.26,11.01-4.38,0-6.06-5.09-4.85-10.83ZM239.18,50.52c2.99,0,7.37-6.3,8.86-13.77.84-4.39.14-7.14-2.15-7.14-2.57,0-6.25,3.41-8.44,10.17-2.24,7.14-.79,10.73,1.73,10.73Z"/>
        <path class="cls-2" d="M258.16,31.02c2.75-.19,5.18-.51,8.07-2.33l.42.33-.93,4.2-2.33,11.15c-.79,3.73-1.54,5.93-.47,5.97,1.03.14,2.8-2.15,4.1-7.23l.42.09c-1.82,7.84-5.13,10.36-7.74,9.85-2.61-.47-2.47-3.41-1.49-7.93l2.1-9.85c.61-2.75-.09-3.59-2.15-3.64v-.61ZM262.27,21.82c.19-1.77,1.59-3.13,3.45-3.13s3.03,1.35,2.85,3.13c-.14,1.91-1.54,3.27-3.45,3.27s-2.99-1.35-2.85-3.27Z"/>
        <path class="cls-2" d="M267.26,48.93c-.47-1.63.19-3.13,1.49-3.59,1.31-.47,2.66.19,3.08,1.4.51,1.54-.7,2.57-.56,4.01.14,1.07,1.26,2.01,3.22,1.91,1.77-.05,3.64-1.12,4.06-3.13.47-2.1-.98-4.01-3.83-6.86-3.13-3.13-4.66-5.51-4.06-8.59.65-3.17,3.69-5.37,7.7-5.51,3.03-.09,6.16,1.26,6.86,3.87.47,1.49-.14,3.08-1.49,3.55-1.21.47-2.47-.14-2.94-1.35-.56-1.68.79-2.61.56-3.73-.19-.89-1.17-1.73-2.71-1.68-2.01.05-3.64,1.45-3.92,3.36-.23,1.77.56,3.22,3.27,5.83,2.85,2.75,5.5,5.23,4.8,9.01-.75,3.97-4.34,5.88-8.12,5.93-2.99.05-6.58-1.4-7.42-4.43Z"/>
        <path class="cls-2" d="M286.95,31.02c2.75-.19,5.18-.51,8.07-2.33l.42.33-.93,4.2-2.33,11.15c-.79,3.73-1.54,5.93-.47,5.97,1.03.14,2.8-2.15,4.1-7.23l.42.09c-1.82,7.84-5.13,10.36-7.74,9.85-2.61-.47-2.47-3.41-1.49-7.93l2.1-9.85c.61-2.75-.09-3.59-2.15-3.64v-.61ZM291.05,21.82c.19-1.77,1.59-3.13,3.45-3.13s3.03,1.35,2.85,3.13c-.14,1.91-1.54,3.27-3.45,3.27s-2.99-1.35-2.85-3.27Z"/>
        <path class="cls-2" d="M300.76,35.26c.61-2.71-.14-3.59-2.15-3.59v-.61c2.75-.19,5.18-.56,8.07-2.38l.37.33-.89,4.2-2.47,11.53c3.31-9.75,8.02-16,12.83-16,3.45,0,4.9,2.85,3.31,8.49l-2.05,7.47c-1.03,3.64-1.91,5.79-.84,5.93.98.19,2.94-2.01,4.57-7l.42.14c-2.33,7.7-5.74,10.03-8.35,9.38-2.57-.65-2.24-3.55-.98-8.03l1.91-6.72c1.59-5.41.51-6.81-.93-6.81-3.27,0-8.44,8.4-11.61,21.28h-4.94l3.73-17.59Z"/>
        <path class="cls-2" d="M319.84,56.21c0-2.8,3.73-3.08,7-3.17-3.13-1.21-4.15-5.65-3.13-10.55,1.68-7.84,7.6-13.67,13.99-13.67,2.1,0,3.54.75,4.8,1.87l3.5-2.33.51.33-5.27,24.17c-1.4,6.35-6.16,9.8-11.43,9.8-6.58,0-9.98-4.06-9.98-6.44ZM329.68,61.91c3.59,0,5.6-4.2,6.67-9.05l2.47-10.92c-2.29,5.83-6.2,11.34-10.17,11.39-2.99.09-4.2.93-4.29,2.61-.09,2.47,2.38,5.97,5.32,5.97ZM330.9,50.52c3.13,0,7.84-7.79,9.14-14.7.65-3.59.05-6.21-2.33-6.21-2.52,0-6.16,3.13-8.44,10.17-2.29,7.28-.79,10.73,1.63,10.73Z"/>
      </g>
    </g>
  </g>
</svg>