<?xml version="1.0" encoding="UTF-8"?>
<svg id="Capa_2" data-name="Capa 2" xmlns="http://www.w3.org/2000/svg" viewBox="0 0 395.29 78.04">
  <defs>
    <style>
      .cls-1 {
        fill: #b280e4;
      }

      .cls-1, .cls-2 {
        stroke-width: 0px;
      }

      .cls-2 {
        fill: #0a001a;
      }
    </style>
  </defs>
  <g id="Capa_1-2" data-name="Capa 1">
    <g>
      <rect class="cls-1" x="0" y="0" width="395.29" height="78.04" rx="34.56" ry="34.56" transform="translate(395.29 78.04) rotate(180)"/>
      <g>
        <path class="cls-2" d="M142.91,52.25c1.91,0,3.22-.89,3.92-4.06l4.94-23.33c.65-3.17-.75-4.06-2.66-4.06v-.61h11.85v.61c-1.91,0-3.22.89-3.92,4.06l-5.13,24.22c-.47,2.15,0,2.99,1.73,2.99h2.8c5.46,0,9.28-2.8,12.27-8.87l.56.14-4.1,9.52h-22.25v-.61Z"/>
        <path class="cls-2" d="M170.43,31.02c2.75-.19,5.18-.51,8.07-2.33l.42.33-.93,4.2-2.33,11.15c-.79,3.73-1.54,5.93-.47,5.97,1.03.14,2.8-2.15,4.1-7.23l.42.09c-1.82,7.84-5.13,10.36-7.74,9.85-2.61-.47-2.47-3.41-1.49-7.93l2.1-9.85c.61-2.75-.09-3.59-2.15-3.64v-.61ZM174.54,21.82c.19-1.77,1.59-3.13,3.45-3.13s3.03,1.35,2.85,3.13c-.14,1.91-1.54,3.27-3.45,3.27s-2.99-1.35-2.85-3.27Z"/>
        <path class="cls-2" d="M180.46,52.99l6.11-28.6c.61-2.71-.09-3.59-2.15-3.59l.05-.61c2.71-.19,5.13-.56,8.07-2.38l.37.33-.93,4.2-3.69,17.22c2.24-5.55,6.25-10.78,10.22-10.78,4.52,0,6.25,4.95,5.04,10.69-1.68,7.84-8.02,13.67-14.41,13.67-2.15,0-4.01-.79-5.36-1.63l-2.89,1.82-.42-.33ZM189.23,52.34c2.61.05,6.44-3.45,8.58-10.17,2.29-7.14.84-10.64-1.68-10.64-3.08,0-7.37,6.58-8.77,12.93-1.26,5.6-.42,7.89,1.87,7.89Z"/>
        <path class="cls-2" d="M206.31,31.62v-.61c2.75-.19,5.18-.51,8.07-2.33l.42.33-.89,4.2-2.33,11.01c2.66-8.96,5.32-14.89,8.91-15.44,1.77-.28,3.27.84,3.5,2.38.19,1.45-.56,3.22-2.38,3.55-1.4.23-2.43-.75-2.75-1.59-.28-.65-.7-1.12-1.54-.56-1.35.79-4.52,7.75-7.6,20.3h-5.08l3.82-17.59c.61-2.75-.09-3.59-2.15-3.64Z"/>
        <path class="cls-2" d="M221.94,40.3c1.73-7.42,7.88-11.62,13.34-11.62s9.42,5.27,7.7,12.79c-1.68,7.51-7.79,11.81-13.2,11.81-5.78,0-9.52-5.46-7.84-12.97ZM230.29,52.53c2.89-.09,5.92-4.39,7.46-11.81,1.45-7.33.23-11.39-2.94-11.29-3.08.09-6.25,4.57-7.7,11.76-1.45,7.42,0,11.43,3.17,11.34Z"/>
      </g>
    </g>
  </g>
</svg>