<?xml version="1.0" encoding="UTF-8"?>
<svg id="Capa_2" data-name="Capa 2" xmlns="http://www.w3.org/2000/svg" viewBox="0 0 395.29 78.04">
  <defs>
    <style>
      .cls-1 {
        fill: #b280e4;
      }

      .cls-1, .cls-2 {
        stroke-width: 0px;
      }

      .cls-2 {
        fill: #0a001a;
      }
    </style>
  </defs>
  <g id="Capa_1-2" data-name="Capa 1">
    <g>
      <rect class="cls-1" x="0" y="0" width="395.29" height="78.04" rx="34.56" ry="34.56" transform="translate(395.29 78.04) rotate(180)"/>
      <g>
        <path class="cls-2" d="M114.49,51.55c-1.21-.47-2.85-.51-3.31,1.31h-.65l2.38-12.51.65.05c-.56,6.35,1.49,11.99,7.28,12.04,3.45,0,6.39-1.96,7.09-5.04.61-2.75-.56-5.55-3.27-7.51l-4.62-3.36c-3.5-2.57-5.08-5.51-4.2-9.15,1.21-4.95,6.3-7.65,10.87-7.61,3.13.05,4.8.98,6.11,1.59,1.07.47,2.38.28,2.89-1.59h.56l-2.52,12.09-.65-.05c.79-7-2.1-11.11-6.34-11.29-3.36-.09-5.78,1.96-6.39,4.71-.56,2.43.47,4.95,3.08,6.91l4.57,3.45c3.31,2.47,5.32,5.51,4.34,9.61-1.45,5.93-7.18,8.03-11.57,7.98-3.08,0-5.04-1.12-6.3-1.63Z"/>
        <path class="cls-2" d="M135.06,42.4c.84-7.65,7.04-13.67,13.62-13.67,3.13,0,5.32,1.59,5.22,4.11-.14,4.39-6.67,7.65-13.76,7.98-.79,5.93,1.4,9.61,5.41,9.61,3.59,0,6.95-3.59,8.44-9.57l.51.14c-1.54,7.09-6.39,12.27-11.66,12.27s-8.58-4.39-7.79-10.87ZM149.94,31.76c-.09-1.4-.89-2.29-2.15-2.29-3.27,0-6.67,4.85-7.56,10.69,0,.05,0,.09-.05.19,7-.7,9.84-5.55,9.75-8.59Z"/>
        <path class="cls-2" d="M164.22,52.99l6.11-28.6c.61-2.71-.09-3.59-2.15-3.59l.05-.61c2.71-.19,5.13-.56,8.07-2.38l.37.33-.93,4.2-3.69,17.22c2.24-5.55,6.25-10.78,10.22-10.78,4.52,0,6.25,4.95,5.04,10.69-1.68,7.84-8.02,13.67-14.41,13.67-2.15,0-4.01-.79-5.36-1.63l-2.89,1.82-.42-.33ZM172.99,52.34c2.61.05,6.44-3.45,8.58-10.17,2.29-7.14.84-10.64-1.68-10.64-3.08,0-7.37,6.58-8.77,12.93-1.26,5.6-.42,7.89,1.87,7.89Z"/>
        <path class="cls-2" d="M189.69,44.83l2.47-9.75c.65-2.71-.05-3.59-2.05-3.64l.05-.65c2.71-.09,5.13-.37,8.12-2.1l.37.33-1.03,4.15-2.61,10.5c-1.4,5.41-.56,6.81.89,6.81,3.27,0,8.26-8.49,11.43-21.42h4.94l-3.17,15.17c-.79,3.73-1.49,5.93-.42,5.97.98.14,2.8-2.15,4.1-7.23l.42.09c-1.82,7.84-5.08,10.36-7.74,9.89-2.61-.51-2.47-3.45-1.54-7.98l1.63-7.56c-3.27,9.71-7.84,15.91-12.55,15.91-3.5,0-4.71-2.8-3.31-8.49Z"/>
        <path class="cls-2" d="M212.92,48.93c-.47-1.63.19-3.13,1.49-3.59,1.31-.47,2.66.19,3.08,1.4.51,1.54-.7,2.57-.56,4.01.14,1.07,1.26,2.01,3.22,1.91,1.77-.05,3.64-1.12,4.06-3.13.47-2.1-.98-4.01-3.82-6.86-3.13-3.13-4.66-5.51-4.06-8.59.65-3.17,3.69-5.37,7.7-5.51,3.03-.09,6.16,1.26,6.86,3.87.47,1.49-.14,3.08-1.49,3.55-1.21.47-2.47-.14-2.94-1.35-.56-1.68.79-2.61.56-3.73-.19-.89-1.17-1.73-2.71-1.68-2.01.05-3.64,1.45-3.92,3.36-.23,1.77.56,3.22,3.27,5.83,2.85,2.75,5.5,5.23,4.8,9.01-.75,3.97-4.34,5.88-8.12,5.93-2.99.05-6.58-1.4-7.42-4.43Z"/>
        <path class="cls-2" d="M231.45,42.49c.84-7.47,6.9-13.67,13.57-13.67,3.54,0,5.6,2.01,5.78,4.53.14,2.1-1.03,3.13-2.24,3.31-1.59.19-2.71-.79-2.85-2.19-.19-1.59,1.21-2.43,1.03-3.64-.14-.98-.93-1.4-1.96-1.31-3.45.14-7.28,5.04-8.16,10.87-.98,6.07,1.4,10.03,5.46,10.03,3.64,0,7.14-3.36,8.54-9.52l.47.09c-1.54,7.33-6.44,12.27-11.52,12.27-5.32-.05-8.86-4.39-8.12-10.78Z"/>
        <path class="cls-2" d="M252.3,42.49c1.68-7.84,7.7-13.67,13.99-13.67,2.05,0,3.5.75,4.76,1.87l3.54-2.38.47.37-3.41,15.68c-.79,3.73-1.54,5.93-.47,5.97.98.14,2.8-2.15,4.1-7.23l.47.14c-1.87,7.79-5.18,10.31-7.79,9.85-2.61-.51-2.38-3.45-1.31-7.93l.7-2.75c-2.33,5.55-6.3,10.92-10.22,10.92-4.38,0-6.06-5.09-4.85-10.83ZM259.48,50.52c3.03,0,7.65-6.86,9.05-13.91.79-4.29,0-7-2.29-7-2.52,0-6.25,3.41-8.4,10.17-2.24,7.14-.84,10.73,1.63,10.73Z"/>
      </g>
    </g>
  </g>
</svg>