<?xml version="1.0" encoding="UTF-8"?>
<svg id="Capa_2" data-name="Capa 2" xmlns="http://www.w3.org/2000/svg" viewBox="0 0 395.29 78.04">
  <defs>
    <style>
      .cls-1 {
        fill: #974b8f;
      }

      .cls-1, .cls-2 {
        stroke-width: 0px;
      }

      .cls-2 {
        fill: #0a001a;
      }
    </style>
  </defs>
  <g id="Capa_1-2" data-name="Capa 1">
    <g>
      <rect class="cls-1" x="0" y="0" width="395.29" height="78.04" rx="34.56" ry="34.56" transform="translate(395.29 78.04) rotate(180)"/>
      <g>
        <path class="cls-2" d="M162.95,52.25c1.91,0,3.27-.89,3.92-4.06l5.78-27.2h-2.57c-4.34,0-8.21,4.01-10.12,9.01l-.61-.09,3.5-9.71h25.1l-.65,9.71-.65.09c.23-4.99-1.77-9.01-6.16-9.01h-2.57l-5.74,27.2c-.7,3.17.7,4.06,2.61,4.06v.61h-11.85v-.61Z"/>
        <path class="cls-2" d="M182.12,42.4c.84-7.65,7.04-13.67,13.62-13.67,3.13,0,5.32,1.59,5.22,4.11-.14,4.39-6.67,7.65-13.76,7.98-.79,5.93,1.4,9.61,5.41,9.61,3.59,0,6.95-3.59,8.44-9.57l.51.14c-1.54,7.09-6.39,12.27-11.66,12.27s-8.58-4.39-7.79-10.87ZM197,31.76c-.09-1.4-.89-2.29-2.15-2.29-3.27,0-6.67,4.85-7.56,10.69,0,.05,0,.09-.05.19,7-.7,9.84-5.55,9.75-8.59Z"/>
        <path class="cls-2" d="M201.02,48.93c-.47-1.63.19-3.13,1.49-3.59,1.31-.47,2.66.19,3.08,1.4.51,1.54-.7,2.57-.56,4.01.14,1.07,1.26,2.01,3.22,1.91,1.77-.05,3.64-1.12,4.06-3.13.47-2.1-.98-4.01-3.82-6.86-3.13-3.13-4.66-5.51-4.06-8.59.65-3.17,3.69-5.37,7.7-5.51,3.03-.09,6.16,1.26,6.86,3.87.47,1.49-.14,3.08-1.49,3.55-1.21.47-2.47-.14-2.94-1.35-.56-1.68.79-2.61.56-3.73-.19-.89-1.17-1.73-2.71-1.68-2.01.05-3.64,1.45-3.92,3.36-.23,1.77.56,3.22,3.27,5.83,2.85,2.75,5.5,5.23,4.8,9.01-.75,3.97-4.34,5.88-8.12,5.93-2.99.05-6.58-1.4-7.42-4.43Z"/>
        <path class="cls-2" d="M220.47,45.76l3.08-14.7h-3.03l.09-.65c3.87-.28,7.32-2.75,8.96-7h.65l-1.21,5.79h7.04l-1.21,1.87h-6.3l-2.94,14.14c-.75,3.55-.28,5.37,1.54,5.46,2.01.09,4.52-2.8,6.25-6.95l.47.19c-1.87,5.41-5.74,9.43-9.28,9.43-3.78,0-5.04-3.03-4.1-7.56Z"/>
      </g>
    </g>
  </g>
</svg>