<?xml version="1.0" encoding="UTF-8"?>
<svg id="Capa_2" data-name="Capa 2" xmlns="http://www.w3.org/2000/svg" viewBox="0 0 53.8 56.1">
  <defs>
    <style>
      .cls-1 {
        fill: #d44481;
        stroke-width: 0px;
      }
    </style>
  </defs>
  <g id="Capa_1-2" data-name="Capa 1">
    <g id="p4lYrU.tif">
      <path class="cls-1" d="M39.59,56.09c-1.41,0-2.82,0-4.23,0-1.67,0-2.43-.75-2.44-2.4-.02-2.85-.07-5.7-.03-8.55.02-1.85-1.29-3.21-3.11-3.28-1.93-.08-3.88-.08-5.81.01-1.77.09-3.06,1.44-3.03,3.26.03,2.91-.01,5.81-.04,8.72-.01,1.41-.86,2.26-2.27,2.26-2.99,0-5.98-.01-8.97-.03-1.07,0-2.06-.86-2.23-1.94-.28-1.73-.25-3.48-.26-5.22-.04-6.5-.07-13.01-.1-19.51,0-.19-.02-.39,0-.58.07-.77-.22-1.08-1.04-1.06-1.55.04-3.1,0-4.65-.04-1.29-.03-1.75-.92-1.04-2.01.94-1.44,2.3-2.51,3.5-3.72,5.47-5.51,10.95-11.01,16.45-16.48,1.72-1.71,3.39-3.47,5.27-5.01.81-.66,1.77-.66,2.57-.03,2.37,1.86,4.41,4.08,6.54,6.19,4.56,4.51,9.07,9.07,13.6,13.61,1.56,1.56,3.12,3.11,4.66,4.68.28.29.52.65.69,1.02.45.97,0,1.71-1.08,1.74-1.55.04-3.1.05-4.65.06-1.1.01-1.13.02-1.14,1.11-.04,6.01-.06,12.01-.1,18.02-.02,2.32,0,4.65-.25,6.97-.15,1.38-1.09,2.2-2.48,2.2-1.44,0-2.88,0-4.32,0,0,0,0,0,0,.01Z"/>
    </g>
  </g>
</svg>